  0
SECTION
  2
HEADER
  9
$ACADVER
  1
AC1024
  9
$ACADMAINTVER
 70
6
  9
$DWGCODEPAGE
  3
ANSI_1252
  9
$LASTSAVEDBY
  1
ezdxf
  9
$INSBASE
 10
0.0
 20
0.0
 30
0.0
  9
$EXTMIN
 10
1e+20
 20
1e+20
 30
1e+20
  9
$EXTMAX
 10
-1e+20
 20
-1e+20
 30
-1e+20
  9
$LIMMIN
 10
0.0
 20
0.0
  9
$LIMMAX
 10
420.0
 20
297.0
  9
$ORTHOMODE
 70
0
  9
$REGENMODE
 70
1
  9
$FILLMODE
 70
1
  9
$QTEXTMODE
 70
0
  9
$MIRRTEXT
 70
1
  9
$LTSCALE
 40
1.0
  9
$ATTMODE
 70
1
  9
$TEXTSIZE
 40
2.5
  9
$TRACEWID
 40
1.0
  9
$TEXTSTYLE
  7
Standard
  9
$CLAYER
  8
0
  9
$CELTYPE
  6
ByLayer
  9
$CECOLOR
 62
256
  9
$CELTSCALE
 40
1.0
  9
$DISPSILH
 70
0
  9
$DIMSCALE
 40
1.0
  9
$DIMASZ
 40
2.5
  9
$DIMEXO
 40
0.625
  9
$DIMDLI
 40
3.75
  9
$DIMRND
 40
0.0
  9
$DIMDLE
 40
0.0
  9
$DIMEXE
 40
1.25
  9
$DIMTP
 40
0.0
  9
$DIMTM
 40
0.0
  9
$DIMTXT
 40
2.5
  9
$DIMCEN
 40
2.5
  9
$DIMTSZ
 40
0.0
  9
$DIMTOL
 70
0
  9
$DIMLIM
 70
0
  9
$DIMTIH
 70
0
  9
$DIMTOH
 70
0
  9
$DIMSE1
 70
0
  9
$DIMSE2
 70
0
  9
$DIMTAD
 70
1
  9
$DIMZIN
 70
8
  9
$DIMBLK
  1

  9
$DIMASO
 70
1
  9
$DIMSHO
 70
1
  9
$DIMPOST
  1

  9
$DIMAPOST
  1

  9
$DIMALT
 70
0
  9
$DIMALTD
 70
3
  9
$DIMALTF
 40
0.03937007874
  9
$DIMLFAC
 40
1.0
  9
$DIMTOFL
 70
1
  9
$DIMTVP
 40
0.0
  9
$DIMTIX
 70
0
  9
$DIMSOXD
 70
0
  9
$DIMSAH
 70
0
  9
$DIMBLK1
  1

  9
$DIMBLK2
  1

  9
$DIMSTYLE
  2
ISO-25
  9
$DIMCLRD
 70
0
  9
$DIMCLRE
 70
0
  9
$DIMCLRT
 70
0
  9
$DIMTFAC
 40
1.0
  9
$DIMGAP
 40
0.625
  9
$DIMJUST
 70
0
  9
$DIMSD1
 70
0
  9
$DIMSD2
 70
0
  9
$DIMTOLJ
 70
0
  9
$DIMTZIN
 70
8
  9
$DIMALTZ
 70
0
  9
$DIMALTTZ
 70
0
  9
$DIMUPT
 70
0
  9
$DIMDEC
 70
2
  9
$DIMTDEC
 70
2
  9
$DIMALTU
 70
2
  9
$DIMALTTD
 70
3
  9
$DIMTXSTY
  7
Standard
  9
$DIMAUNIT
 70
0
  9
$DIMADEC
 70
0
  9
$DIMALTRND
 40
0.0
  9
$DIMAZIN
 70
0
  9
$DIMDSEP
 70
44
  9
$DIMATFIT
 70
3
  9
$DIMFRAC
 70
0
  9
$DIMLDRBLK
  1

  9
$DIMLUNIT
 70
2
  9
$DIMLWD
 70
-2
  9
$DIMLWE
 70
-2
  9
$DIMTMOVE
 70
0
  9
$DIMFXL
 40
1.0
  9
$DIMFXLON
 70
0
  9
$DIMJOGANG
 40
0.785398163397
  9
$DIMTFILL
 70
0
  9
$DIMTFILLCLR
 70
0
  9
$DIMARCSYM
 70
0
  9
$DIMLTYPE
  6

  9
$DIMLTEX1
  6

  9
$DIMLTEX2
  6

  9
$DIMTXTDIRECTION
 70
0
  9
$LUNITS
 70
2
  9
$LUPREC
 70
4
  9
$SKETCHINC
 40
1.0
  9
$FILLETRAD
 40
10.0
  9
$AUNITS
 70
0
  9
$AUPREC
 70
2
  9
$MENU
  1
.
  9
$ELEVATION
 40
0.0
  9
$PELEVATION
 40
0.0
  9
$THICKNESS
 40
0.0
  9
$LIMCHECK
 70
0
  9
$CHAMFERA
 40
0.0
  9
$CHAMFERB
 40
0.0
  9
$CHAMFERC
 40
0.0
  9
$CHAMFERD
 40
0.0
  9
$SKPOLY
 70
0
  9
$TDCREATE
 40
2461282.381273148
  9
$TDUCREATE
 40
2458532.153996898
  9
$TDUPDATE
 40
2461282.381273148
  9
$TDUUPDATE
 40
2458532.1544311
  9
$TDINDWG
 40
0.0
  9
$TDUSRTIMER
 40
0.0
  9
$USRTIMER
 70
1
  9
$ANGBASE
 50
0.0
  9
$ANGDIR
 70
0
  9
$PDMODE
 70
0
  9
$PDSIZE
 40
0.0
  9
$PLINEWID
 40
0.0
  9
$SPLFRAME
 70
0
  9
$SPLINETYPE
 70
6
  9
$SPLINESEGS
 70
8
  9
$HANDSEED
  5
93
  9
$SURFTAB1
 70
6
  9
$SURFTAB2
 70
6
  9
$SURFTYPE
 70
6
  9
$SURFU
 70
6
  9
$SURFV
 70
6
  9
$UCSBASE
  2

  9
$UCSNAME
  2

  9
$UCSORG
 10
0.0
 20
0.0
 30
0.0
  9
$UCSXDIR
 10
1.0
 20
0.0
 30
0.0
  9
$UCSYDIR
 10
0.0
 20
1.0
 30
0.0
  9
$UCSORTHOREF
  2

  9
$UCSORTHOVIEW
 70
0
  9
$UCSORGTOP
 10
0.0
 20
0.0
 30
0.0
  9
$UCSORGBOTTOM
 10
0.0
 20
0.0
 30
0.0
  9
$UCSORGLEFT
 10
0.0
 20
0.0
 30
0.0
  9
$UCSORGRIGHT
 10
0.0
 20
0.0
 30
0.0
  9
$UCSORGFRONT
 10
0.0
 20
0.0
 30
0.0
  9
$UCSORGBACK
 10
0.0
 20
0.0
 30
0.0
  9
$PUCSBASE
  2

  9
$PUCSNAME
  2

  9
$PUCSORG
 10
0.0
 20
0.0
 30
0.0
  9
$PUCSXDIR
 10
1.0
 20
0.0
 30
0.0
  9
$PUCSYDIR
 10
0.0
 20
1.0
 30
0.0
  9
$PUCSORTHOREF
  2

  9
$PUCSORTHOVIEW
 70
0
  9
$PUCSORGTOP
 10
0.0
 20
0.0
 30
0.0
  9
$PUCSORGBOTTOM
 10
0.0
 20
0.0
 30
0.0
  9
$PUCSORGLEFT
 10
0.0
 20
0.0
 30
0.0
  9
$PUCSORGRIGHT
 10
0.0
 20
0.0
 30
0.0
  9
$PUCSORGFRONT
 10
0.0
 20
0.0
 30
0.0
  9
$PUCSORGBACK
 10
0.0
 20
0.0
 30
0.0
  9
$USERI1
 70
0
  9
$USERI2
 70
0
  9
$USERI3
 70
0
  9
$USERI4
 70
0
  9
$USERI5
 70
0
  9
$USERR1
 40
0.0
  9
$USERR2
 40
0.0
  9
$USERR3
 40
0.0
  9
$USERR4
 40
0.0
  9
$USERR5
 40
0.0
  9
$WORLDVIEW
 70
1
  9
$SHADEDGE
 70
3
  9
$SHADEDIF
 70
70
  9
$TILEMODE
 70
1
  9
$MAXACTVP
 70
64
  9
$PINSBASE
 10
0.0
 20
0.0
 30
0.0
  9
$PLIMCHECK
 70
0
  9
$PEXTMIN
 10
1e+20
 20
1e+20
 30
1e+20
  9
$PEXTMAX
 10
-1e+20
 20
-1e+20
 30
-1e+20
  9
$PLIMMIN
 10
0.0
 20
0.0
  9
$PLIMMAX
 10
420.0
 20
297.0
  9
$UNITMODE
 70
0
  9
$VISRETAIN
 70
1
  9
$PLINEGEN
 70
0
  9
$PSLTSCALE
 70
1
  9
$TREEDEPTH
 70
3020
  9
$CMLSTYLE
  2
Standard
  9
$CMLJUST
 70
0
  9
$CMLSCALE
 40
20.0
  9
$PROXYGRAPHICS
 70
1
  9
$MEASUREMENT
 70
1
  9
$CELWEIGHT
370
-1
  9
$ENDCAPS
280
0
  9
$JOINSTYLE
280
0
  9
$LWDISPLAY
290
0
  9
$INSUNITS
 70
6
  9
$HYPERLINKBASE
  1

  9
$STYLESHEET
  1

  9
$XEDIT
290
1
  9
$CEPSNTYPE
380
0
  9
$PSTYLEMODE
290
1
  9
$FINGERPRINTGUID
  2
{BBE78190-644B-4031-BFB6-B93413C35017}
  9
$VERSIONGUID
  2
{F4159811-7B86-449E-99D0-7BCAF4B913AD}
  9
$EXTNAMES
290
1
  9
$PSVPSCALE
 40
0.0
  9
$OLESTARTUP
290
0
  9
$SORTENTS
280
127
  9
$INDEXCTL
280
0
  9
$HIDETEXT
280
1
  9
$XCLIPFRAME
280
1
  9
$HALOGAP
280
0
  9
$OBSCOLOR
 70
257
  9
$OBSLTYPE
280
0
  9
$INTERSECTIONDISPLAY
280
0
  9
$INTERSECTIONCOLOR
 70
257
  9
$DIMASSOC
280
2
  9
$PROJECTNAME
  1

  9
$CAMERADISPLAY
290
0
  9
$LENSLENGTH
 40
50.0
  9
$CAMERAHEIGHT
 40
0.0
  9
$STEPSPERSEC
 40
24.0
  9
$STEPSIZE
 40
100.0
  9
$3DDWFPREC
 40
2.0
  9
$PSOLWIDTH
 40
0.005
  9
$PSOLHEIGHT
 40
0.08
  9
$LOFTANG1
 40
1.570796326795
  9
$LOFTANG2
 40
1.570796326795
  9
$LOFTMAG1
 40
0.0
  9
$LOFTMAG2
 40
0.0
  9
$LOFTPARAM
 70
7
  9
$LOFTNORMALS
280
1
  9
$LATITUDE
 40
37.795
  9
$LONGITUDE
 40
-122.394
  9
$NORTHDIRECTION
 40
0.0
  9
$TIMEZONE
 70
-8000
  9
$LIGHTGLYPHDISPLAY
280
1
  9
$TILEMODELIGHTSYNCH
280
1
  9
$CMATERIAL
347
20
  9
$SOLIDHIST
280
0
  9
$SHOWHIST
280
1
  9
$DWFFRAME
280
2
  9
$DGNFRAME
280
2
  9
$REALWORLDSCALE
290
1
  9
$INTERFERECOLOR
 62
256
  9
$CSHADOW
280
0
  9
$SHADOWPLANELOCATION
 40
0.0
  0
ENDSEC
  0
SECTION
  2
CLASSES
  0
CLASS
  1
ACDBDICTIONARYWDFLT
  2
AcDbDictionaryWithDefault
  3
ObjectDBX Classes
 90
0
 91
0
280
0
281
0
  0
CLASS
  1
SUN
  2
AcDbSun
  3
SCENEOE
 90
1153
 91
0
280
0
281
0
  0
CLASS
  1
VISUALSTYLE
  2
AcDbVisualStyle
  3
ObjectDBX Classes
 90
4095
 91
0
280
0
281
0
  0
CLASS
  1
MATERIAL
  2
AcDbMaterial
  3
ObjectDBX Classes
 90
1153
 91
0
280
0
281
0
  0
CLASS
  1
SCALE
  2
AcDbScale
  3
ObjectDBX Classes
 90
1153
 91
0
280
0
281
0
  0
CLASS
  1
TABLESTYLE
  2
AcDbTableStyle
  3
ObjectDBX Classes
 90
4095
 91
0
280
0
281
0
  0
CLASS
  1
MLEADERSTYLE
  2
AcDbMLeaderStyle
  3
ACDB_MLEADERSTYLE_CLASS
 90
4095
 91
0
280
0
281
0
  0
CLASS
  1
DICTIONARYVAR
  2
AcDbDictionaryVar
  3
ObjectDBX Classes
 90
0
 91
0
280
0
281
0
  0
CLASS
  1
CELLSTYLEMAP
  2
AcDbCellStyleMap
  3
ObjectDBX Classes
 90
1152
 91
0
280
0
281
0
  0
CLASS
  1
MENTALRAYRENDERSETTINGS
  2
AcDbMentalRayRenderSettings
  3
SCENEOE
 90
1024
 91
0
280
0
281
0
  0
CLASS
  1
ACDBDETAILVIEWSTYLE
  2
AcDbDetailViewStyle
  3
ObjectDBX Classes
 90
1025
 91
0
280
0
281
0
  0
CLASS
  1
ACDBSECTIONVIEWSTYLE
  2
AcDbSectionViewStyle
  3
ObjectDBX Classes
 90
1025
 91
0
280
0
281
0
  0
CLASS
  1
RASTERVARIABLES
  2
AcDbRasterVariables
  3
ISM
 90
0
 91
0
280
0
281
0
  0
CLASS
  1
ACDBPLACEHOLDER
  2
AcDbPlaceHolder
  3
ObjectDBX Classes
 90
0
 91
0
280
0
281
0
  0
CLASS
  1
LAYOUT
  2
AcDbLayout
  3
ObjectDBX Classes
 90
0
 91
0
280
0
281
0
  0
ENDSEC
  0
SECTION
  2
TABLES
  0
TABLE
  2
VPORT
  5
8
330
0
100
AcDbSymbolTable
 70
1
  0
VPORT
  5
23
330
8
100
AcDbSymbolTableRecord
100
AcDbViewportTableRecord
  2
*Active
 70
0
 10
0.0
 20
0.0
 11
1.0
 21
1.0
 12
0.0
 22
0.0
 13
0.0
 23
0.0
 14
0.5
 24
0.5
 15
0.5
 25
0.5
 16
0.0
 26
0.0
 36
1.0
 17
0.0
 27
0.0
 37
0.0
 40
1000.0
 41
1.34
 42
50.0
 43
0.0
 44
0.0
 50
0.0
 51
0.0
 71
0
 72
1000
 73
1
 74
3
 75
0
 76
0
 77
0
 78
0
281
0
 65
0
146
0.0
  0
ENDTAB
  0
TABLE
  2
LTYPE
  5
2
330
0
100
AcDbSymbolTable
 70
3
  0
LTYPE
  5
24
330
2
100
AcDbSymbolTableRecord
100
AcDbLinetypeTableRecord
  2
ByBlock
 70
0
  3

 72
65
 73
0
 40
0.0
  0
LTYPE
  5
25
330
2
100
AcDbSymbolTableRecord
100
AcDbLinetypeTableRecord
  2
ByLayer
 70
0
  3

 72
65
 73
0
 40
0.0
  0
LTYPE
  5
26
330
2
100
AcDbSymbolTableRecord
100
AcDbLinetypeTableRecord
  2
Continuous
 70
0
  3

 72
65
 73
0
 40
0.0
  0
ENDTAB
  0
TABLE
  2
LAYER
  5
1
330
0
100
AcDbSymbolTable
 70
6
  0
LAYER
  5
27
330
1
100
AcDbSymbolTableRecord
100
AcDbLayerTableRecord
  2
0
 70
0
 62
7
  6
Continuous
370
-3
390
13
347
21
  0
LAYER
  5
28
330
1
100
AcDbSymbolTableRecord
100
AcDbLayerTableRecord
  2
Defpoints
 70
0
 62
7
  6
Continuous
290
0
370
-3
390
13
347
21
  0
LAYER
  5
2F
330
1
100
AcDbSymbolTableRecord
100
AcDbLayerTableRecord
  2
地形点
 70
0
 62
7
  6
Continuous
370
-3
390
13
347
21
  0
LAYER
  5
30
330
1
100
AcDbSymbolTableRecord
100
AcDbLayerTableRecord
  2
等高线
 70
0
 62
7
  6
Continuous
370
-3
390
13
347
21
  0
LAYER
  5
31
330
1
100
AcDbSymbolTableRecord
100
AcDbLayerTableRecord
  2
建筑物
 70
0
 62
7
  6
Continuous
370
-3
390
13
347
21
  0
LAYER
  5
32
330
1
100
AcDbSymbolTableRecord
100
AcDbLayerTableRecord
  2
注记
 70
0
 62
7
  6
Continuous
370
-3
390
13
347
21
  0
ENDTAB
  0
TABLE
  2
STYLE
  5
5
330
0
100
AcDbSymbolTable
 70
1
  0
STYLE
  5
29
330
5
100
AcDbSymbolTableRecord
100
AcDbTextStyleTableRecord
  2
Standard
 70
0
 40
0.0
 41
1.0
 50
0.0
 71
0
 42
2.5
  3
txt
  4

  0
ENDTAB
  0
TABLE
  2
VIEW
  5
7
330
0
100
AcDbSymbolTable
 70
0
  0
ENDTAB
  0
TABLE
  2
UCS
  5
6
330
0
100
AcDbSymbolTable
 70
0
  0
ENDTAB
  0
TABLE
  2
APPID
  5
3
330
0
100
AcDbSymbolTable
 70
3
  0
APPID
  5
2A
330
3
100
AcDbSymbolTableRecord
100
AcDbRegAppTableRecord
  2
ACAD
 70
0
  0
APPID
  5
90
330
3
100
AcDbSymbolTableRecord
100
AcDbRegAppTableRecord
  2
HATCHBACKGROUNDCOLOR
 70
0
  0
APPID
  5
91
330
3
100
AcDbSymbolTableRecord
100
AcDbRegAppTableRecord
  2
EZDXF
 70
0
  0
ENDTAB
  0
TABLE
  2
DIMSTYLE
  5
4
330
0
100
AcDbSymbolTable
 70
1
100
AcDbDimStyleTable
  0
DIMSTYLE
105
2B
330
4
100
AcDbSymbolTableRecord
100
AcDbDimStyleTableRecord
  2
Standard
 70
0
 40
1.0
 41
2.5
 42
0.625
 43
3.75
 44
1.25
 45
0.0
 46
0.0
 47
0.0
 48
0.0
 49
2.5
140
2.5
141
2.5
142
0.0
143
0.03937007874
144
1.0
145
0.0
146
1.0
147
0.625
148
0.0
 69
0
 70
0
 71
0
 72
0
 73
0
 74
0
 75
0
 76
0
 77
1
 78
8
 79
3
170
0
171
3
172
1
173
0
174
0
175
0
176
0
177
0
178
0
179
2
271
2
272
2
273
2
274
3
275
0
276
0
277
2
278
44
279
0
280
0
281
0
282
0
283
0
284
8
285
0
286
0
288
0
289
3
290
0
371
-2
372
-2
  0
ENDTAB
  0
TABLE
  2
BLOCK_RECORD
  5
9
330
0
100
AcDbSymbolTable
 70
3
  0
BLOCK_RECORD
  5
17
330
9
100
AcDbSymbolTableRecord
100
AcDbBlockTableRecord
  2
*Model_Space
340
1A
 70
0
280
1
281
0
  0
BLOCK_RECORD
  5
1B
330
9
100
AcDbSymbolTableRecord
100
AcDbBlockTableRecord
  2
*Paper_Space
340
1E
 70
0
280
1
281
0
  0
BLOCK_RECORD
  5
88
330
9
100
AcDbSymbolTableRecord
100
AcDbBlockTableRecord
  2
控标
340
0
 70
0
280
1
281
0
  0
ENDTAB
  0
ENDSEC
  0
SECTION
  2
BLOCKS
  0
BLOCK
  5
18
330
17
100
AcDbEntity
  8
0
100
AcDbBlockBegin
  2
*Model_Space
 70
0
 10
0.0
 20
0.0
 30
0.0
  3
*Model_Space
  1

  0
ENDBLK
  5
19
330
17
100
AcDbEntity
  8
0
100
AcDbBlockEnd
  0
BLOCK
  5
1C
330
1B
100
AcDbEntity
  8
0
100
AcDbBlockBegin
  2
*Paper_Space
 70
0
 10
0.0
 20
0.0
 30
0.0
  3
*Paper_Space
  1

  0
ENDBLK
  5
1D
330
1B
100
AcDbEntity
  8
0
100
AcDbBlockEnd
  0
BLOCK
  5
89
330
88
100
AcDbEntity
  8
0
100
AcDbBlockBegin
  2
控标
 70
0
 10
0.0
 20
0.0
 30
0.0
  3
控标
  1

  0
LINE
  5
8B
330
88
100
AcDbEntity
  8
0
100
AcDbLine
 10
0.0
 20
0.0
 30
0.0
 11
20.0
 21
0.0
 31
0.0
  0
LINE
  5
8C
330
88
100
AcDbEntity
  8
0
100
AcDbLine
 10
0.0
 20
0.0
 30
0.0
 11
0.0
 21
20.0
 31
0.0
  0
ENDBLK
  5
8A
330
88
100
AcDbEntity
  8
0
100
AcDbBlockEnd
  0
ENDSEC
  0
SECTION
  2
ENTITIES
  0
POINT
  5
33
330
17
100
AcDbEntity
  8
地形点
100
AcDbPoint
 10
498790.56537386385
 20
3352490.2620386956
 30
45.14426819552828
  0
TEXT
  5
34
330
17
100
AcDbEntity
  8
注记
100
AcDbText
 10
498795.56537386385
 20
3352495.2620386956
 30
45.14426819552828
 40
8.0
  1
D1 H=45.14
 11
498795.56537386385
 21
3352495.2620386956
 31
45.14426819552828
100
AcDbText
  0
POINT
  5
35
330
17
100
AcDbEntity
  8
地形点
100
AcDbPoint
 10
498311.5856239278
 20
3355876.7357925777
 30
56.432341838919285
  0
TEXT
  5
36
330
17
100
AcDbEntity
  8
注记
100
AcDbText
 10
498316.5856239278
 20
3355881.7357925777
 30
56.432341838919285
 40
8.0
  1
D2 H=56.43
 11
498316.5856239278
 21
3355881.7357925777
 31
56.432341838919285
100
AcDbText
  0
POINT
  5
37
330
17
100
AcDbEntity
  8
地形点
100
AcDbPoint
 10
499189.8097448296
 20
3352652.181084284
 30
51.943070434513416
  0
TEXT
  5
38
330
17
100
AcDbEntity
  8
注记
100
AcDbText
 10
499194.8097448296
 20
3352657.181084284
 30
51.943070434513416
 40
8.0
  1
D3 H=51.94
 11
499194.8097448296
 21
3352657.181084284
 31
51.943070434513416
100
AcDbText
  0
POINT
  5
39
330
17
100
AcDbEntity
  8
地形点
100
AcDbPoint
 10
502274.6808203425
 20
3354466.1366862557
 30
45.28501952168435
  0
TEXT
  5
3A
330
17
100
AcDbEntity
  8
注记
100
AcDbText
 10
502279.6808203425
 20
3354471.1366862557
 30
45.28501952168435
 40
8.0
  1
D4 H=45.29
 11
502279.6808203425
 21
3354471.1366862557
 31
45.28501952168435
100
AcDbText
  0
POINT
  5
3B
330
17
100
AcDbEntity
  8
地形点
100
AcDbPoint
 10
502133.7434637678
 20
3355758.5672479137
 30
52.889293548571644
  0
TEXT
  5
3C
330
17
100
AcDbEntity
  8
注记
100
AcDbText
 10
502138.7434637678
 20
3355763.5672479137
 30
52.889293548571644
 40
8.0
  1
D5 H=52.89
 11
502138.7434637678
 21
3355763.5672479137
 31
52.889293548571644
100
AcDbText
  0
POINT
  5
3D
330
17
100
AcDbEntity
  8
地形点
100
AcDbPoint
 10
501486.99650027714
 20
3352077.8484432134
 30
57.51887971132784
  0
TEXT
  5
3E
330
17
100
AcDbEntity
  8
注记
100
AcDbText
 10
501491.99650027714
 20
3352082.8484432134
 30
57.51887971132784
 40
8.0
  1
D6 H=57.52
 11
501491.99650027714
 21
3352082.8484432134
 31
57.51887971132784
100
AcDbText
  0
POINT
  5
3F
330
17
100
AcDbEntity
  8
地形点
100
AcDbPoint
 10
498485.8134445424
 20
3354095.451279118
 30
39.51983076618441
  0
TEXT
  5
40
330
17
100
AcDbEntity
  8
注记
100
AcDbText
 10
498490.8134445424
 20
3354100.451279118
 30
39.51983076618441
 40
8.0
  1
D7 H=39.52
 11
498490.8134445424
 21
3354100.451279118
 31
39.51983076618441
100
AcDbText
  0
POINT
  5
41
330
17
100
AcDbEntity
  8
地形点
100
AcDbPoint
 10
497936.2054665723
 20
3355381.580556502
 30
48.65516072658515
  0
TEXT
  5
42
330
17
100
AcDbEntity
  8
注记
100
AcDbText
 10
497941.2054665723
 20
3355386.580556502
 30
48.65516072658515
 40
8.0
  1
D8 H=48.66
 11
497941.2054665723
 21
3355386.580556502
 31
48.65516072658515
100
AcDbText
  0
POINT
  5
43
330
17
100
AcDbEntity
  8
地形点
100
AcDbPoint
 10
499006.4016895134
 20
3352813.6955331927
 30
59.42886191326088
  0
TEXT
  5
44
330
17
100
AcDbEntity
  8
注记
100
AcDbText
 10
499011.4016895134
 20
3352818.6955331927
 30
59.42886191326088
 40
8.0
  1
D9 H=59.43
 11
499011.4016895134
 21
3352818.6955331927
 31
59.42886191326088
100
AcDbText
  0
POINT
  5
45
330
17
100
AcDbEntity
  8
地形点
100
AcDbPoint
 10
500917.55061260663
 20
3353106.500454217
 30
54.184629207693746
  0
TEXT
  5
46
330
17
100
AcDbEntity
  8
注记
100
AcDbText
 10
500922.55061260663
 20
3353111.500454217
 30
54.184629207693746
 40
8.0
  1
D10 H=54.18
 11
500922.55061260663
 21
3353111.500454217
 31
54.184629207693746
100
AcDbText
  0
POINT
  5
47
330
17
100
AcDbEntity
  8
地形点
100
AcDbPoint
 10
498232.7977548639
 20
3353152.9290654287
 30
54.304014773804525
  0
TEXT
  5
48
330
17
100
AcDbEntity
  8
注记
100
AcDbText
 10
498237.7977548639
 20
3353157.9290654287
 30
54.304014773804525
 40
8.0
  1
D11 H=54.30
 11
498237.7977548639
 21
3353157.9290654287
 31
54.304014773804525
100
AcDbText
  0
POINT
  5
49
330
17
100
AcDbEntity
  8
地形点
100
AcDbPoint
 10
498939.39800308406
 20
3353814.477525267
 30
40.29057050116377
  0
TEXT
  5
4A
330
17
100
AcDbEntity
  8
注记
100
AcDbText
 10
498944.39800308406
 20
3353819.477525267
 30
40.29057050116377
 40
8.0
  1
D12 H=40.29
 11
498944.39800308406
 21
3353819.477525267
 31
40.29057050116377
100
AcDbText
  0
POINT
  5
4B
330
17
100
AcDbEntity
  8
地形点
100
AcDbPoint
 10
500731.53456853866
 20
3355934.4863420706
 30
48.07659731154786
  0
TEXT
  5
4C
330
17
100
AcDbEntity
  8
注记
100
AcDbText
 10
500736.53456853866
 20
3355939.4863420706
 30
48.07659731154786
 40
8.0
  1
D13 H=48.08
 11
500736.53456853866
 21
3355939.4863420706
 31
48.07659731154786
100
AcDbText
  0
POINT
  5
4D
330
17
100
AcDbEntity
  8
地形点
100
AcDbPoint
 10
502062.2204759788
 20
3352456.7820341997
 30
43.3196709033848
  0
TEXT
  5
4E
330
17
100
AcDbEntity
  8
注记
100
AcDbText
 10
502067.2204759788
 20
3352461.7820341997
 30
43.3196709033848
 40
8.0
  1
D14 H=43.32
 11
502067.2204759788
 21
3352461.7820341997
 31
43.3196709033848
100
AcDbText
  0
POINT
  5
4F
330
17
100
AcDbEntity
  8
地形点
100
AcDbPoint
 10
502026.68376389594
 20
3355162.964228168
 30
40.14614342987039
  0
TEXT
  5
50
330
17
100
AcDbEntity
  8
注记
100
AcDbText
 10
502031.68376389594
 20
3355167.964228168
 30
40.14614342987039
 40
8.0
  1
D15 H=40.15
 11
502031.68376389594
 21
3355167.964228168
 31
40.14614342987039
100
AcDbText
  0
POINT
  5
51
330
17
100
AcDbEntity
  8
地形点
100
AcDbPoint
 10
501970.98947033164
 20
3355911.7924868152
 30
49.153154575899386
  0
TEXT
  5
52
330
17
100
AcDbEntity
  8
注记
100
AcDbText
 10
501975.98947033164
 20
3355916.7924868152
 30
49.153154575899386
 40
8.0
  1
D16 H=49.15
 11
501975.98947033164
 21
3355916.7924868152
 31
49.153154575899386
100
AcDbText
  0
POINT
  5
53
330
17
100
AcDbEntity
  8
地形点
100
AcDbPoint
 10
498886.97055586637
 20
3354897.256660714
 30
53.09260660159879
  0
TEXT
  5
54
330
17
100
AcDbEntity
  8
注记
100
AcDbText
 10
498891.97055586637
 20
3354902.256660714
 30
53.09260660159879
 40
8.0
  1
D17 H=53.09
 11
498891.97055586637
 21
3354902.256660714
 31
53.09260660159879
100
AcDbText
  0
POINT
  5
55
330
17
100
AcDbEntity
  8
地形点
100
AcDbPoint
 10
499127.45353878394
 20
3353724.5348537
 30
52.42179503833283
  0
TEXT
  5
56
330
17
100
AcDbEntity
  8
注记
100
AcDbText
 10
499132.45353878394
 20
3353729.5348537
 30
52.42179503833283
 40
8.0
  1
D18 H=52.42
 11
499132.45353878394
 21
3353729.5348537
 31
52.42179503833283
100
AcDbText
  0
POINT
  5
57
330
17
100
AcDbEntity
  8
地形点
100
AcDbPoint
 10
501022.57446370483
 20
3353532.5113235135
 30
56.28824602829165
  0
TEXT
  5
58
330
17
100
AcDbEntity
  8
注记
100
AcDbText
 10
501027.57446370483
 20
3353537.5113235135
 30
56.28824602829165
 40
8.0
  1
D19 H=56.29
 11
501027.57446370483
 21
3353537.5113235135
 31
56.28824602829165
100
AcDbText
  0
POINT
  5
59
330
17
100
AcDbEntity
  8
地形点
100
AcDbPoint
 10
498532.49652156845
 20
3353083.2774252733
 30
43.00914750052032
  0
TEXT
  5
5A
330
17
100
AcDbEntity
  8
注记
100
AcDbText
 10
498537.49652156845
 20
3353088.2774252733
 30
43.00914750052032
 40
8.0
  1
D20 H=43.01
 11
498537.49652156845
 21
3353088.2774252733
 31
43.00914750052032
100
AcDbText
  0
POLYLINE
  5
5B
330
17
100
AcDbEntity
  8
等高线
100
AcDb3dPolyline
 66
1
 10
0.0
 20
0.0
 30
0.0
 70
8
  0
VERTEX
  5
5D
330
17
100
AcDbEntity
  8
等高线
100
AcDbVertex
100
AcDb3dPolylineVertex
 10
499400.0
 20
3354000.0
 30
38.0
 70
32
  0
VERTEX
  5
5E
330
17
100
AcDbEntity
  8
等高线
100
AcDbVertex
100
AcDb3dPolylineVertex
 10
499700.0
 20
3354038.3540430884
 30
38.2
 70
32
  0
VERTEX
  5
5F
330
17
100
AcDbEntity
  8
等高线
100
AcDbVertex
100
AcDb3dPolylineVertex
 10
500000.0
 20
3354067.3176787845
 30
38.4
 70
32
  0
VERTEX
  5
60
330
17
100
AcDbEntity
  8
等高线
100
AcDbVertex
100
AcDb3dPolylineVertex
 10
500300.0
 20
3354079.7995989285
 30
38.6
 70
32
  0
VERTEX
  5
61
330
17
100
AcDbEntity
  8
等高线
100
AcDbVertex
100
AcDb3dPolylineVertex
 10
500600.0
 20
3354072.743794146
 30
38.8
 70
32
  0
VERTEX
  5
62
330
17
100
AcDbEntity
  8
等高线
100
AcDbVertex
100
AcDb3dPolylineVertex
 10
500900.0
 20
3354047.8777715284
 30
39.0
 70
32
  0
VERTEX
  5
63
330
17
100
AcDbEntity
  8
等高线
100
AcDbVertex
100
AcDb3dPolylineVertex
 10
501200.0
 20
3354011.2896006447
 30
39.2
 70
32
  0
VERTEX
  5
64
330
17
100
AcDbEntity
  8
等高线
100
AcDbVertex
100
AcDb3dPolylineVertex
 10
501500.0
 20
3353971.937341785
 30
39.4
 70
32
  0
VERTEX
  5
65
330
17
100
AcDbEntity
  8
等高线
100
AcDbVertex
100
AcDb3dPolylineVertex
 10
501800.0
 20
3353939.4558003754
 30
39.6
 70
32
  0
VERTEX
  5
66
330
17
100
AcDbEntity
  8
等高线
100
AcDbVertex
100
AcDb3dPolylineVertex
 10
502100.0
 20
3353921.797590587
 30
39.8
 70
32
  0
VERTEX
  5
67
330
17
100
AcDbEntity
  8
等高线
100
AcDbVertex
100
AcDb3dPolylineVertex
 10
502400.0
 20
3353923.286058027
 30
40.0
 70
32
  0
VERTEX
  5
68
330
17
100
AcDbEntity
  8
等高线
100
AcDbVertex
100
AcDb3dPolylineVertex
 10
502700.0
 20
3353943.5567739545
 30
40.2
 70
32
  0
SEQEND
  5
5C
330
5B
100
AcDbEntity
  8
等高线
  0
POLYLINE
  5
69
330
17
100
AcDbEntity
  8
等高线
100
AcDb3dPolyline
 66
1
 10
0.0
 20
0.0
 30
0.0
 70
8
  0
VERTEX
  5
6B
330
17
100
AcDbEntity
  8
等高线
100
AcDbVertex
100
AcDb3dPolylineVertex
 10
499400.0
 20
3354200.0
 30
42.0
 70
32
  0
VERTEX
  5
6C
330
17
100
AcDbEntity
  8
等高线
100
AcDbVertex
100
AcDb3dPolylineVertex
 10
499700.0
 20
3354238.3540430884
 30
42.2
 70
32
  0
VERTEX
  5
6D
330
17
100
AcDbEntity
  8
等高线
100
AcDbVertex
100
AcDb3dPolylineVertex
 10
500000.0
 20
3354267.3176787845
 30
42.4
 70
32
  0
VERTEX
  5
6E
330
17
100
AcDbEntity
  8
等高线
100
AcDbVertex
100
AcDb3dPolylineVertex
 10
500300.0
 20
3354279.7995989285
 30
42.6
 70
32
  0
VERTEX
  5
6F
330
17
100
AcDbEntity
  8
等高线
100
AcDbVertex
100
AcDb3dPolylineVertex
 10
500600.0
 20
3354272.743794146
 30
42.8
 70
32
  0
VERTEX
  5
70
330
17
100
AcDbEntity
  8
等高线
100
AcDbVertex
100
AcDb3dPolylineVertex
 10
500900.0
 20
3354247.8777715284
 30
43.0
 70
32
  0
VERTEX
  5
71
330
17
100
AcDbEntity
  8
等高线
100
AcDbVertex
100
AcDb3dPolylineVertex
 10
501200.0
 20
3354211.2896006447
 30
43.2
 70
32
  0
VERTEX
  5
72
330
17
100
AcDbEntity
  8
等高线
100
AcDbVertex
100
AcDb3dPolylineVertex
 10
501500.0
 20
3354171.937341785
 30
43.4
 70
32
  0
VERTEX
  5
73
330
17
100
AcDbEntity
  8
等高线
100
AcDbVertex
100
AcDb3dPolylineVertex
 10
501800.0
 20
3354139.4558003754
 30
43.6
 70
32
  0
VERTEX
  5
74
330
17
100
AcDbEntity
  8
等高线
100
AcDbVertex
100
AcDb3dPolylineVertex
 10
502100.0
 20
3354121.797590587
 30
43.8
 70
32
  0
VERTEX
  5
75
330
17
100
AcDbEntity
  8
等高线
100
AcDbVertex
100
AcDb3dPolylineVertex
 10
502400.0
 20
3354123.286058027
 30
44.0
 70
32
  0
VERTEX
  5
76
330
17
100
AcDbEntity
  8
等高线
100
AcDbVertex
100
AcDb3dPolylineVertex
 10
502700.0
 20
3354143.5567739545
 30
44.2
 70
32
  0
SEQEND
  5
6A
330
69
100
AcDbEntity
  8
等高线
  0
POLYLINE
  5
77
330
17
100
AcDbEntity
  8
等高线
100
AcDb3dPolyline
 66
1
 10
0.0
 20
0.0
 30
0.0
 70
8
  0
VERTEX
  5
79
330
17
100
AcDbEntity
  8
等高线
100
AcDbVertex
100
AcDb3dPolylineVertex
 10
499400.0
 20
3354400.0
 30
46.0
 70
32
  0
VERTEX
  5
7A
330
17
100
AcDbEntity
  8
等高线
100
AcDbVertex
100
AcDb3dPolylineVertex
 10
499700.0
 20
3354438.3540430884
 30
46.2
 70
32
  0
VERTEX
  5
7B
330
17
100
AcDbEntity
  8
等高线
100
AcDbVertex
100
AcDb3dPolylineVertex
 10
500000.0
 20
3354467.3176787845
 30
46.4
 70
32
  0
VERTEX
  5
7C
330
17
100
AcDbEntity
  8
等高线
100
AcDbVertex
100
AcDb3dPolylineVertex
 10
500300.0
 20
3354479.7995989285
 30
46.6
 70
32
  0
VERTEX
  5
7D
330
17
100
AcDbEntity
  8
等高线
100
AcDbVertex
100
AcDb3dPolylineVertex
 10
500600.0
 20
3354472.743794146
 30
46.8
 70
32
  0
VERTEX
  5
7E
330
17
100
AcDbEntity
  8
等高线
100
AcDbVertex
100
AcDb3dPolylineVertex
 10
500900.0
 20
3354447.8777715284
 30
47.0
 70
32
  0
VERTEX
  5
7F
330
17
100
AcDbEntity
  8
等高线
100
AcDbVertex
100
AcDb3dPolylineVertex
 10
501200.0
 20
3354411.2896006447
 30
47.2
 70
32
  0
VERTEX
  5
80
330
17
100
AcDbEntity
  8
等高线
100
AcDbVertex
100
AcDb3dPolylineVertex
 10
501500.0
 20
3354371.937341785
 30
47.4
 70
32
  0
VERTEX
  5
81
330
17
100
AcDbEntity
  8
等高线
100
AcDbVertex
100
AcDb3dPolylineVertex
 10
501800.0
 20
3354339.4558003754
 30
47.6
 70
32
  0
VERTEX
  5
82
330
17
100
AcDbEntity
  8
等高线
100
AcDbVertex
100
AcDb3dPolylineVertex
 10
502100.0
 20
3354321.797590587
 30
47.8
 70
32
  0
VERTEX
  5
83
330
17
100
AcDbEntity
  8
等高线
100
AcDbVertex
100
AcDb3dPolylineVertex
 10
502400.0
 20
3354323.286058027
 30
48.0
 70
32
  0
VERTEX
  5
84
330
17
100
AcDbEntity
  8
等高线
100
AcDbVertex
100
AcDb3dPolylineVertex
 10
502700.0
 20
3354343.5567739545
 30
48.2
 70
32
  0
SEQEND
  5
78
330
77
100
AcDbEntity
  8
等高线
  0
LWPOLYLINE
  5
85
330
17
100
AcDbEntity
  8
建筑物
100
AcDbPolyline
 90
4
 70
0
 10
499500.0
 20
3353500.0
 10
501000.0
 20
3353500.0
 10
501000.0
 20
3356500.0
 10
499500.0
 20
3356500.0
  0
CIRCLE
  5
86
330
17
100
AcDbEntity
  8
建筑物
100
AcDbCircle
 10
500500.0
 20
3355000.0
 30
42.0
 40
150.0
  0
ARC
  5
87
330
17
100
AcDbEntity
  8
道路
100
AcDbCircle
 10
500000.0
 20
3355000.0
 30
40.0
 40
300.0
100
AcDbArc
 50
30.0
 51
210.0
  0
INSERT
  5
8D
330
17
100
AcDbEntity
  8
地形点
100
AcDbBlockReference
  2
控标
 10
500200.0
 20
3354200.0
 30
39.0
  0
MTEXT
  5
8F
330
17
100
AcDbEntity
  8
注记
100
AcDbMText
 10
500600.0
 20
3356200.0
 30
45.0
 40
20.0
 71
1
  1
样例测区 Demo\PGeoRefine
  0
ENDSEC
  0
SECTION
  2
OBJECTS
  0
DICTIONARY
  5
A
330
0
100
AcDbDictionary
281
1
  3
ACAD_COLOR
350
B
  3
ACAD_GROUP
350
C
  3
ACAD_LAYOUT
350
D
  3
ACAD_MATERIAL
350
E
  3
ACAD_MLEADERSTYLE
350
F
  3
ACAD_MLINESTYLE
350
10
  3
ACAD_PLOTSETTINGS
350
11
  3
ACAD_PLOTSTYLENAME
350
12
  3
ACAD_SCALELIST
350
14
  3
ACAD_TABLESTYLE
350
15
  3
ACAD_VISUALSTYLE
350
16
  3
EZDXF_META
350
2D
  0
DICTIONARY
  5
B
330
A
100
AcDbDictionary
281
1
  0
DICTIONARY
  5
C
330
A
100
AcDbDictionary
281
1
  0
DICTIONARY
  5
D
330
A
100
AcDbDictionary
281
1
  3
Model
350
1A
  3
Layout1
350
1E
  0
DICTIONARY
  5
E
330
A
100
AcDbDictionary
281
1
  3
ByBlock
350
1F
  3
ByLayer
350
20
  3
Global
350
21
  0
DICTIONARY
  5
F
330
A
100
AcDbDictionary
281
1
  3
Standard
350
2C
  0
DICTIONARY
  5
10
330
A
100
AcDbDictionary
281
1
  3
Standard
350
22
  0
DICTIONARY
  5
11
330
A
100
AcDbDictionary
281
1
  0
ACDBDICTIONARYWDFLT
  5
12
330
A
100
AcDbDictionary
281
1
  3
Normal
350
13
100
AcDbDictionaryWithDefault
340
13
  0
ACDBPLACEHOLDER
  5
13
330
12
  0
DICTIONARY
  5
14
330
A
100
AcDbDictionary
281
1
  0
DICTIONARY
  5
15
330
A
100
AcDbDictionary
281
1
  0
DICTIONARY
  5
16
330
A
100
AcDbDictionary
281
1
  0
LAYOUT
  5
1A
330
D
100
AcDbPlotSettings
  1

  4
A3
  6

 40
7.5
 41
20.0
 42
7.5
 43
20.0
 44
420.0
 45
297.0
 46
0.0
 47
0.0
 48
0.0
 49
0.0
140
0.0
141
0.0
142
1.0
143
1.0
 70
1024
 72
1
 73
0
 74
5
  7

 75
16
 76
0
 77
2
 78
300
147
1.0
148
0.0
149
0.0
100
AcDbLayout
  1
Model
 70
1
 71
0
 10
0.0
 20
0.0
 11
420.0
 21
297.0
 12
0.0
 22
0.0
 32
0.0
 14
1e+20
 24
1e+20
 34
1e+20
 15
-1e+20
 25
-1e+20
 35
-1e+20
146
0.0
 13
0.0
 23
0.0
 33
0.0
 16
1.0
 26
0.0
 36
0.0
 17
0.0
 27
1.0
 37
0.0
 76
1
330
17
  0
LAYOUT
  5
1E
330
D
100
AcDbPlotSettings
  1

  4
A3
  6

 40
7.5
 41
20.0
 42
7.5
 43
20.0
 44
420.0
 45
297.0
 46
0.0
 47
0.0
 48
0.0
 49
0.0
140
0.0
141
0.0
142
1.0
143
1.0
 70
0
 72
1
 73
0
 74
5
  7

 75
16
 76
0
 77
2
 78
300
147
1.0
148
0.0
149
0.0
100
AcDbLayout
  1
Layout1
 70
1
 71
1
 10
0.0
 20
0.0
 11
420.0
 21
297.0
 12
0.0
 22
0.0
 32
0.0
 14
1e+20
 24
1e+20
 34
1e+20
 15
-1e+20
 25
-1e+20
 35
-1e+20
146
0.0
 13
0.0
 23
0.0
 33
0.0
 16
1.0
 26
0.0
 36
0.0
 17
0.0
 27
1.0
 37
0.0
 76
1
330
1B
  0
MATERIAL
  5
1F
102
{ACAD_REACTORS
330
E
102
}
330
E
100
AcDbMaterial
  1
ByBlock
  2

 70
0
 40
1.0
 71
1
 41
1.0
 91
-1023410177
 42
1.0
 72
1
  3

 73
1
 74
1
 75
1
 44
0.5
 73
0
 45
1.0
 46
1.0
 77
1
  4

 78
1
 79
1
170
1
 48
1.0
171
1
  6

172
1
173
1
174
1
140
1.0
141
1.0
175
1
  7

176
1
177
1
178
1
143
1.0
179
1
  8

270
1
271
1
272
1
145
1.0
146
1.0
273
1
  9

274
1
275
1
276
1
 42
1.0
 72
1
  3

 73
1
 74
1
 75
1
 94
63
  0
MATERIAL
  5
20
102
{ACAD_REACTORS
330
E
102
}
330
E
100
AcDbMaterial
  1
ByLayer
  2

 70
0
 40
1.0
 71
1
 41
1.0
 91
-1023410177
 42
1.0
 72
1
  3

 73
1
 74
1
 75
1
 44
0.5
 73
0
 45
1.0
 46
1.0
 77
1
  4

 78
1
 79
1
170
1
 48
1.0
171
1
  6

172
1
173
1
174
1
140
1.0
141
1.0
175
1
  7

176
1
177
1
178
1
143
1.0
179
1
  8

270
1
271
1
272
1
145
1.0
146
1.0
273
1
  9

274
1
275
1
276
1
 42
1.0
 72
1
  3

 73
1
 74
1
 75
1
 94
63
  0
MATERIAL
  5
21
102
{ACAD_REACTORS
330
E
102
}
330
E
100
AcDbMaterial
  1
Global
  2

 70
0
 40
1.0
 71
1
 41
1.0
 91
-1023410177
 42
1.0
 72
1
  3

 73
1
 74
1
 75
1
 44
0.5
 73
0
 45
1.0
 46
1.0
 77
1
  4

 78
1
 79
1
170
1
 48
1.0
171
1
  6

172
1
173
1
174
1
140
1.0
141
1.0
175
1
  7

176
1
177
1
178
1
143
1.0
179
1
  8

270
1
271
1
272
1
145
1.0
146
1.0
273
1
  9

274
1
275
1
276
1
 42
1.0
 72
1
  3

 73
1
 74
1
 75
1
 94
63
  0
MLINESTYLE
  5
22
102
{ACAD_REACTORS
330
10
102
}
330
10
100
AcDbMlineStyle
  2
Standard
 70
0
  3

 62
256
 51
90.0
 52
90.0
 71
2
 49
0.5
 62
256
  6
BYLAYER
 49
-0.5
 62
256
  6
BYLAYER
  0
MLEADERSTYLE
  5
2C
102
{ACAD_REACTORS
330
F
102
}
330
F
100
AcDbMLeaderStyle
179
2
170
2
171
1
172
0
 90
2
 40
0.0
 41
0.0
173
1
 91
-1056964608
 92
-2
290
1
 42
2.0
291
1
 43
8.0
  3
Standard
 44
4.0
300

342
29
174
1
175
1
176
0
178
1
 93
-1056964608
 45
4.0
292
0
297
0
 46
4.0
 94
-1056964608
 47
1.0
 49
1.0
140
1.0
294
1
141
0.0
177
0
142
1.0
295
0
296
0
143
3.75
271
0
272
9
273
9
  0
DICTIONARY
  5
2D
330
A
100
AcDbDictionary
280
1
281
1
  3
CREATED_BY_EZDXF
350
2E
  3
WRITTEN_BY_EZDXF
350
92
  0
DICTIONARYVAR
  5
2E
330
2D
100
DictionaryVariables
280
0
  1
1.4.4 @ 2026-08-29T01:09:02.754914+00:00
  0
DICTIONARYVAR
  5
92
330
2D
100
DictionaryVariables
280
0
  1
1.4.4 @ 2026-08-29T01:09:02.757542+00:00
  0
ENDSEC
  0
EOF
